<?xml version="1.0" standalone="no"?>
<!DOCTYPE svg PUBLIC "-//W3C//DTD SVG 20010904//EN"
 "http://www.w3.org/TR/2001/REC-SVG-20010904/DTD/svg10.dtd">
<svg version="1.0" xmlns="http://www.w3.org/2000/svg"
 width="600.000000pt" height="600.000000pt" viewBox="0 0 600.000000 600.000000"
 preserveAspectRatio="xMidYMid meet">
<metadata>
Created by potrace 1.11, written by Peter Selinger 2001-2013
</metadata>
<g transform="translate(0.000000,600.000000) scale(0.100000,-0.100000)"
fill="#000000" stroke="none">
<path d="M3447 5340 c-49 -50 -138 -157 -198 -238 -60 -81 -114 -152 -119
-159 -6 -7 -10 -15 -10 -18 0 -7 -39 -63 -57 -82 -6 -7 -15 -22 -18 -33 -3
-11 -11 -20 -16 -20 -5 0 -9 -7 -9 -15 0 -8 -4 -15 -10 -15 -5 0 -10 -5 -10
-11 0 -19 -30 -43 -42 -31 -12 12 -11 99 2 132 3 7 3 7 -4 70 -8 66 -34 150
-47 150 -5 0 -9 6 -9 14 0 22 -65 82 -116 106 -67 31 -147 30 -211 -4 -224
-115 -347 -434 -220 -570 62 -65 68 -74 72 -99 6 -28 -7 -37 -45 -31 -88 13
-109 17 -145 25 -22 5 -53 12 -70 15 -16 2 -41 7 -55 11 -14 3 -34 8 -45 9
-11 2 -38 8 -60 13 -34 9 -107 25 -205 47 -14 3 -32 7 -40 8 -53 10 -97 18
-113 23 -11 3 59 -110 178 -289 108 -161 199 -301 202 -310 3 -10 9 -18 14
-18 5 0 9 -5 9 -11 0 -6 11 -25 25 -43 14 -18 25 -36 25 -40 0 -4 5 -12 10
-19 6 -7 43 -64 82 -127 39 -63 73 -117 75 -119 1 -2 29 6 60 18 32 12 65 24
73 26 8 2 15 4 15 5 0 1 7 3 15 5 8 2 40 11 70 19 73 20 118 29 198 40 15 2
50 7 77 10 111 16 357 22 378 9 6 -3 7 -1 3 5 -6 10 27 9 86 -3 10 -2 21 1 24
6 3 5 10 6 16 3 6 -4 66 -9 132 -11 67 -3 135 -5 151 -6 35 -2 33 -22 21 253
-17 370 -27 763 -29 1107 -1 181 -6 283 -12 283 -5 0 -50 -41 -98 -90z m19
-233 c6 -290 22 -784 39 -1134 2 -46 1 -83 -3 -83 -4 0 -135 -2 -292 -4 -157
-3 -305 -7 -330 -10 -25 -2 -70 -8 -100 -11 -62 -7 -251 -46 -320 -66 -55 -15
-52 -14 -70 -21 -33 -13 -83 -28 -85 -26 -5 5 -198 313 -209 333 -13 24 -83
130 -178 273 -37 56 -68 105 -68 108 0 2 -9 14 -20 26 -29 32 -25 37 22 27 23
-6 47 -8 54 -5 8 3 16 1 20 -5 3 -5 14 -7 24 -4 10 3 21 2 24 -3 3 -5 34 -13
68 -18 66 -8 78 -10 91 -14 12 -4 20 -6 72 -14 28 -4 55 -11 60 -14 6 -4 19
-8 30 -9 17 -3 169 -48 200 -60 9 -3 12 114 6 225 -1 7 -12 16 -24 21 -34 13
-75 66 -88 113 -44 166 138 402 296 383 59 -7 82 -19 123 -64 63 -68 78 -147
53 -261 l-13 -55 41 -67 c23 -37 41 -72 41 -78 0 -5 4 -10 9 -10 5 0 11 -9 14
-20 3 -11 9 -20 14 -20 4 1 46 58 91 128 46 70 99 147 118 172 19 25 37 52 41
60 4 8 12 21 19 30 7 8 41 51 75 95 35 44 77 95 94 113 16 19 34 40 38 49 15
26 22 3 23 -80z"/>
<path d="M2610 5043 c-86 -29 -153 -127 -154 -223 0 -67 26 -111 82 -138 l37
-17 1 -192 1 -192 -51 21 c-93 37 -226 76 -351 103 -80 18 -113 24 -155 31
-19 3 -43 8 -53 11 -20 5 -24 12 126 -220 43 -64 77 -121 77 -126 0 -5 4 -11
8 -13 4 -1 43 -61 86 -131 61 -101 82 -127 95 -122 17 7 65 23 91 30 8 2 40
11 70 19 63 17 117 28 143 30 9 0 17 3 17 6 0 4 10 6 23 5 12 -1 27 0 32 4 6
3 19 6 30 7 32 2 138 16 160 20 33 7 191 15 355 19 142 3 155 5 156 22 1 10 3
23 4 28 1 6 1 15 0 20 -2 10 -3 31 -15 365 -11 338 -15 464 -15 528 -1 34 -4
62 -8 62 -10 0 -104 -126 -281 -375 -79 -110 -146 -201 -150 -203 -4 -1 -22
26 -41 60 -18 35 -62 109 -96 166 l-64 104 20 38 c29 56 27 146 -2 190 -48 70
-101 89 -178 63z"/>
<path d="M5325 3766 c-16 -7 -40 -24 -52 -37 -24 -27 -67 -119 -55 -119 5 0 7
-13 6 -29 -3 -42 29 -105 67 -132 19 -13 36 -24 39 -24 3 -1 16 -7 29 -14 14
-8 21 -9 17 -2 -4 6 -2 11 3 11 6 0 11 -4 11 -8 0 -5 7 -9 15 -9 8 0 15 4 15
8 0 5 6 6 13 3 7 -2 33 9 58 24 109 70 116 230 13 308 -43 33 -130 43 -179 20z
m152 -49 c105 -70 56 -267 -67 -267 -55 0 -84 14 -114 52 -35 47 -41 113 -14
167 11 22 28 43 39 46 10 4 19 10 19 15 0 11 47 18 80 12 14 -2 39 -14 57 -25z"/>
<path d="M5337 3693 c-3 -5 -4 -51 -3 -103 1 -88 2 -95 21 -95 16 0 21 8 23
35 5 54 19 58 37 12 16 -39 44 -60 64 -48 5 4 -1 27 -14 54 -20 40 -21 49 -9
58 18 14 18 53 0 77 -10 12 -27 17 -64 17 -28 0 -53 -3 -55 -7z m86 -47 c3 -8
-5 -18 -19 -25 -22 -10 -24 -8 -24 14 0 18 5 25 19 25 10 0 21 -6 24 -14z"/>
<path d="M3565 3710 c-88 -40 -154 -175 -219 -447 -2 -10 -11 -34 -19 -53 -8
-19 -15 -39 -15 -43 -1 -9 -39 -95 -53 -117 -5 -8 -12 -22 -16 -30 -32 -68
-385 -289 -458 -286 l-30 1 0 127 c0 69 -3 130 -7 133 -8 9 -54 9 -85 2 -88
-22 -176 -124 -272 -314 -38 -75 -61 -125 -67 -148 -1 -5 -16 -44 -32 -85 -82
-207 -100 -412 -44 -498 17 -26 68 -56 81 -47 5 3 26 31 47 62 21 32 41 60 44
63 16 12 121 182 158 255 34 68 40 75 40 50 0 -16 2 -142 5 -280 2 -165 0
-270 -8 -308 -15 -76 -4 -102 45 -103 l35 0 0 -328 0 -329 -70 -23 c-105 -35
-127 -48 -177 -101 -34 -36 -34 -47 2 -50 23 -2 53 -5 180 -17 157 -16 262
-20 475 -20 132 1 248 2 257 4 22 4 30 27 19 49 -17 30 -93 91 -140 112 l-46
19 2 388 c0 213 1 392 2 397 1 6 14 11 31 12 31 2 91 29 101 46 7 10 3 197 -6
322 -3 39 -6 107 -8 152 -1 46 -4 83 -7 83 -3 0 -6 28 -6 63 -1 34 -4 75 -7
90 -4 21 -2 27 7 24 15 -6 66 34 66 52 0 6 3 11 8 11 14 0 81 154 122 282 36
110 47 151 54 198 2 19 7 55 11 80 3 25 8 72 10 105 2 33 5 60 6 60 1 0 3 11
4 25 6 75 17 164 19 169 2 3 7 28 10 55 4 27 9 53 12 58 9 15 14 53 8 70 -6
19 -36 23 -69 8z"/>
<path d="M3047 3703 c-1 -1 -47 -4 -102 -7 -55 -4 -111 -8 -125 -11 -14 -2
-45 -7 -70 -9 -25 -3 -79 -12 -120 -21 -41 -10 -81 -17 -87 -18 -28 -1 -44
-123 -28 -207 22 -115 95 -222 194 -284 164 -104 383 -73 519 72 40 43 93 136
98 171 1 9 6 39 11 66 11 58 -5 174 -30 221 l-15 29 -122 0 c-66 1 -122 0
-123 -2z"/>
<path d="M553 3326 l-28 -24 -1 -1219 c-2 -1335 -5 -1261 55 -1281 15 -5 86
-8 159 -7 130 1 133 1 160 28 l27 27 2 563 c1 309 2 594 3 632 l0 70 42 -75
c77 -141 360 -635 370 -647 6 -7 7 -13 2 -13 -5 0 -4 -4 2 -8 10 -6 20 -23 90
-149 15 -27 42 -75 62 -108 19 -33 46 -80 60 -105 74 -134 104 -179 129 -196
24 -16 51 -18 213 -19 102 -1 197 3 213 8 52 17 42 72 -34 184 -16 23 -29 46
-29 51 0 6 -3 12 -8 14 -6 2 -251 389 -337 532 -11 18 -78 126 -150 240 -262
416 -240 375 -221 411 9 16 26 41 37 55 17 21 60 81 205 285 8 11 32 44 54 74
22 30 40 57 40 60 0 4 10 17 23 31 12 14 31 38 41 55 11 16 23 34 28 40 5 5
74 102 154 214 214 299 213 301 -61 301 -117 0 -193 -4 -209 -11 -14 -7 -50
-48 -81 -93 -106 -154 -405 -609 -405 -618 0 -4 -4 -8 -9 -8 -5 0 -13 -9 -16
-20 -3 -11 -12 -26 -18 -32 -7 -7 -52 -73 -100 -147 -48 -73 -87 -125 -88
-115 0 11 0 228 0 484 0 281 -4 478 -10 497 -18 55 -42 63 -198 63 -133 0
-141 -1 -168 -24z"/>
<path d="M3958 3333 c-15 -10 -30 -30 -34 -47 -9 -42 -8 -2397 1 -2426 9 -28
22 -43 50 -57 24 -11 744 -11 763 0 7 5 12 3 12 -3 0 -6 5 -8 11 -5 5 4 29 9
51 12 23 2 49 8 59 13 9 5 19 7 22 3 7 -6 166 44 185 59 6 6 12 7 12 2 0 -5 4
-4 8 1 4 6 23 19 43 29 69 36 165 127 221 209 38 56 95 170 113 227 16 51 37
123 41 141 5 22 7 35 18 99 3 14 5 25 6 25 2 0 9 48 16 115 16 142 8 673 -12
760 -3 13 -7 40 -10 58 -2 19 -6 38 -9 42 -3 4 -7 25 -11 46 -8 49 -59 195
-91 259 -59 116 -153 231 -246 299 -80 58 -228 118 -356 143 -14 3 -208 7
-431 9 -371 4 -407 3 -432 -13z m642 -324 c199 -8 352 -104 433 -270 38 -78
73 -188 81 -254 3 -22 7 -50 10 -62 23 -107 24 -597 1 -713 -2 -13 -7 -41 -10
-62 -7 -48 -44 -189 -53 -203 -4 -5 -7 -12 -7 -15 -1 -3 -13 -27 -27 -55 -23
-44 -75 -105 -121 -142 -22 -18 -97 -54 -97 -47 0 4 -6 2 -13 -4 -7 -6 -26
-13 -42 -16 -17 -3 -41 -8 -55 -11 -34 -8 -358 -13 -368 -6 -4 3 -9 211 -10
461 -1 250 -2 461 -2 468 0 22 0 301 0 320 1 9 1 150 2 312 l2 295 30 5 c31 5
126 5 246 -1z"/>
</g>
</svg>
